<?xml version="1.0" encoding="UTF-8"?>
<svg xmlns="http://www.w3.org/2000/svg" viewBox="0 0 1200 630" width="1200" height="630">
  <defs>
    <linearGradient id="g36132" x1="96.025242672622%" y1="30.463443575536292%" x2="3.9747573273779935%" y2="69.53655642446371%">
      <stop offset="0%" stop-color="#0891B2"/>
      <stop offset="100%" stop-color="#0E7490"/>
    </linearGradient>
  </defs>
  <rect width="1200" height="630" fill="url(#g36132)"/>
  <polygon points="167.23007896915078,250 287.2300789691508,190 407.2300789691508,250" fill="rgba(255,255,255,0.06)" stroke="rgba(255,255,255,0.12)" stroke-width="2"/><rect x="181.23007896915078" y="250" width="12" height="150" fill="rgba(255,255,255,0.08)"/><rect x="231.23007896915078" y="250" width="12" height="150" fill="rgba(255,255,255,0.08)"/><rect x="281.2300789691508" y="250" width="12" height="150" fill="rgba(255,255,255,0.08)"/><rect x="331.2300789691508" y="250" width="12" height="150" fill="rgba(255,255,255,0.08)"/><rect x="381.2300789691508" y="250" width="12" height="150" fill="rgba(255,255,255,0.08)"/><rect x="157.23007896915078" y="400" width="260" height="12" rx="2" fill="rgba(255,255,255,0.1)"/><path d="M 820.9563247510232 137.95537777245045 L 865.9563247510232 157.95537777245045 L 865.9563247510232 197.95537777245045 C 865.9563247510232 227.95537777245045 820.9563247510232 247.95537777245045 820.9563247510232 247.95537777245045 C 820.9563247510232 247.95537777245045 775.9563247510232 227.95537777245045 775.9563247510232 197.95537777245045 L 775.9563247510232 157.95537777245045 Z" fill="rgba(255,255,255,0.06)" stroke="rgba(255,255,255,0.15)" stroke-width="2"/><text x="840.1824456173927" y="150.75596928596497" font-family="sans-serif" font-size="27.813858137466013" fill="rgba(255,255,255,0.09987165061291307)">★</text><text x="875.5653262138367" y="199.40953166224062" font-family="sans-serif" font-size="25.5855939341709" fill="rgba(255,255,255,0.12037984351161868)">★</text><text x="926.1862338986248" y="189.67413365840912" font-family="sans-serif" font-size="28.46643416583538" fill="rgba(255,255,255,0.14140341546852142)">★</text><text x="947.1447312040254" y="95.58417621068656" font-family="sans-serif" font-size="31.90902030467987" fill="rgba(255,255,255,0.12370164913125337)">★</text><text x="793.7112067826092" y="192.49680722132325" font-family="sans-serif" font-size="27.3108964683488" fill="rgba(255,255,255,0.14429121892433613)">★</text>
  <circle cx="628.5076959058642" cy="372.1136108902283" r="2.870352372992784" fill="rgba(255,255,255,0.06821734663797543)"/><circle cx="948.9822777919471" cy="176.94709236966446" r="2.7096373639069498" fill="rgba(255,255,255,0.055686907919589426)"/><circle cx="1168.951859883964" cy="425.8471169625409" r="1.5223384299315512" fill="rgba(255,255,255,0.06752661262406037)"/><circle cx="533.7410842068493" cy="616.0658317152411" r="2.0458544651046395" fill="rgba(255,255,255,0.060494691198691726)"/><circle cx="974.1900181397796" cy="150.52662739763036" r="2.6000660457648337" fill="rgba(255,255,255,0.04668603233993053)"/><circle cx="944.0887408331037" cy="135.05138244945556" r="2.6072622681967914" fill="rgba(255,255,255,0.07584882571361959)"/><circle cx="625.8344267494977" cy="125.96013452857733" r="2.4657744062133133" fill="rgba(255,255,255,0.0663069859216921)"/><circle cx="898.1895821169019" cy="574.5885831560008" r="2.3849784694612026" fill="rgba(255,255,255,0.040150608385447414)"/><circle cx="1137.6026504673064" cy="517.4669384211302" r="1.8843868551775813" fill="rgba(255,255,255,0.07498075725277886)"/><circle cx="544.3610270507634" cy="122.32807737076655" r="1.254855582024902" fill="rgba(255,255,255,0.06447520368499682)"/><circle cx="838.0999152548611" cy="167.39167260937393" r="2.6493941168300807" fill="rgba(255,255,255,0.05754611246054992)"/><circle cx="273.48423153162" cy="272.6891522691585" r="2.655341550242156" fill="rgba(255,255,255,0.04833790314849466)"/><circle cx="271.6056847013533" cy="106.99359089601785" r="1.968667714856565" fill="rgba(255,255,255,0.030681680184789)"/><circle cx="981.3802985474467" cy="411.07093868544325" r="1.9860056634061038" fill="rgba(255,255,255,0.050688689651433375)"/><circle cx="287.5211823731661" cy="186.39915936626494" r="2.808375228662044" fill="rgba(255,255,255,0.031062118972185998)"/><circle cx="248.03408570587635" cy="553.1436361488886" r="1.4203884042799473" fill="rgba(255,255,255,0.07626986734801904)"/><circle cx="740.5032886192203" cy="207.0350081543438" r="2.9710167041048408" fill="rgba(255,255,255,0.050912981021683665)"/><circle cx="56.51627657935023" cy="394.69139027874917" r="1.197967185638845" fill="rgba(255,255,255,0.03876994325080886)"/><circle cx="783.8802983053029" cy="301.61005787551403" r="2.943983252160251" fill="rgba(255,255,255,0.03892245512222871)"/><circle cx="563.3307273499668" cy="428.39195540640503" r="2.783060213085264" fill="rgba(255,255,255,0.07386033562477679)"/>
  <text x="600" y="335" font-family="system-ui, -apple-system, 'Segoe UI', sans-serif" font-size="68" font-weight="700" fill="rgba(0,0,0,0.15)" text-anchor="middle" letter-spacing="1">IBPS Clerk</text>
  <text x="600" y="332" font-family="system-ui, -apple-system, 'Segoe UI', sans-serif" font-size="68" font-weight="700" fill="white" text-anchor="middle" letter-spacing="1">IBPS Clerk</text>
  <g transform="translate(1140, 575)">
    <rect x="0" y="0" width="40" height="40" rx="8" fill="rgba(255,255,255,0.15)"/>
    <text x="20" y="29" font-family="sans-serif" font-weight="bold" font-size="24" fill="rgba(255,255,255,0.6)" text-anchor="middle">K</text>
  </g>
</svg>